<?xml version="1.0" encoding="utf-8"?>
<!-- Generator: Adobe Illustrator 22.0.1, SVG Export Plug-In . SVG Version: 6.00 Build 0)  -->
<svg version="1.1" id="Layer_1" xmlns="http://www.w3.org/2000/svg" xmlns:xlink="http://www.w3.org/1999/xlink" x="0px" y="0px"
	 viewBox="0 0 17.6 14" style="enable-background:new 0 0 17.6 14;" xml:space="preserve">
<style type="text/css">
	.st0{fill-rule:evenodd;clip-rule:evenodd;fill:#FFFFFF;}
</style>
<g id="SHOPPING_CART">
	<g>
		<path class="st0" d="M15.1,8.6L15.1,8.6l2.5-5.5l0,0c0-0.1,0.1-0.2,0.1-0.3c0-0.5-0.4-0.8-0.8-0.8H4.6L4.1,0.6l0,0
			C4,0.2,3.7,0,3.3,0H0.8C0.4,0,0,0.4,0,0.8s0.4,0.8,0.8,0.8h1.9l3.2,9.1H4.4c-0.9,0-1.7,0.7-1.7,1.7c0,0.9,0.7,1.6,1.7,1.6
			s1.7-0.7,1.7-1.6h7.7c0,0.9,0.7,1.6,1.7,1.6c0.9,0,1.6-0.7,1.6-1.6c0-0.9-0.7-1.7-1.6-1.7H7.6L7.2,9.5l7.1-0.5
			C14.7,9.1,14.9,8.9,15.1,8.6z M6.7,7.9L5.1,3.6h10.4l-1.7,3.9L6.7,7.9z"/>
	</g>
</g>
</svg>
