<?xml version="1.0" encoding="utf-8"?>
<!-- Generator: Adobe Illustrator 22.0.1, SVG Export Plug-In . SVG Version: 6.00 Build 0)  -->
<svg version="1.1" id="Layer_1" xmlns="http://www.w3.org/2000/svg" xmlns:xlink="http://www.w3.org/1999/xlink" x="0px" y="0px"
	 viewBox="0 0 17.6 17.6" style="enable-background:new 0 0 17.6 17.6;" xml:space="preserve">
<style type="text/css">
	.st0{fill-rule:evenodd;clip-rule:evenodd;fill:#FFFFFF;}
</style>
<g id="MAGNIFYING_GLASS">
	<g>
		<path class="st0" d="M17.1,14.8l-4.8-4.8c0.6-1,0.9-2.1,0.9-3.3c0-3.6-3-6.6-6.6-6.6S0,3,0,6.6c0,3.6,3,6.6,6.6,6.6
			c1.2,0,2.4-0.3,3.3-0.9l4.8,4.8c0.3,0.3,0.7,0.5,1.2,0.5c0.9,0,1.6-0.7,1.6-1.6C17.6,15.5,17.4,15.1,17.1,14.8z M6.6,11.6
			c-2.7,0-5-2.2-5-5s2.2-5,5-5c2.7,0,4.9,2.2,4.9,5S9.3,11.6,6.6,11.6z"/>
	</g>
</g>
</svg>
